<svg xmlns="http://www.w3.org/2000/svg" width="54" height="53" viewBox="0 0 54 53">
  <g id="Group_10" data-name="Group 10" transform="translate(-313 -4744)">
    <ellipse id="Ellipse_3" data-name="Ellipse 3" cx="27" cy="26.5" rx="27" ry="26.5" transform="translate(313 4744)" fill="#3979f3"/>
    <path id="Path_8" data-name="Path 8" d="M26.667,2.526a11.068,11.068,0,0,1-3.142.847A5.431,5.431,0,0,0,25.932.394,11.1,11.1,0,0,1,22.457,1.7,5.5,5.5,0,0,0,18.462,0a5.428,5.428,0,0,0-5.471,5.385,5.3,5.3,0,0,0,.141,1.228A15.614,15.614,0,0,1,1.857.985a5.289,5.289,0,0,0-.741,2.708A5.363,5.363,0,0,0,3.548,8.176,5.508,5.508,0,0,1,1.07,7.5V7.57a5.411,5.411,0,0,0,4.389,5.28,5.549,5.549,0,0,1-2.471.094A5.469,5.469,0,0,0,8.1,16.683a11.083,11.083,0,0,1-6.8,2.3A11.059,11.059,0,0,1,0,18.913a15.661,15.661,0,0,0,8.385,2.42,15.591,15.591,0,0,0,9.825-3.343A15.519,15.519,0,0,0,23.953,6.009c0-.233-.006-.465-.016-.7a11.011,11.011,0,0,0,2.729-2.787Zm0,0" transform="translate(326.667 4760)" fill="#fff"/>
  </g>
</svg>
