<svg xmlns="http://www.w3.org/2000/svg" width="53" height="53" viewBox="0 0 53 53">
  <g id="Group_11" data-name="Group 11" transform="translate(-247 -4744)">
    <circle id="Ellipse_4" data-name="Ellipse 4" cx="26.5" cy="26.5" r="26.5" transform="translate(247 4744)" fill="#eee"/>
    <path id="Path_6" data-name="Path 6" d="M14.007,21.276c-1.877-.14-2.666-1.024-4.139-1.875-.81,4.038-1.8,7.91-4.731,9.932-.9-6.1,1.328-10.688,2.366-15.553-1.767-2.831.212-8.526,3.942-7.122,4.589,1.725-3.975,10.521,1.775,11.618,6,1.147,8.451-9.9,4.73-13.493C12.571-.4,2.295,4.666,3.56,12.093c.307,1.815,2.281,2.366.787,4.872C.906,16.24-.121,13.659.011,10.219.225,4.588,5.333.645,10.458.1c6.483-.689,12.566,2.263,13.406,8.059.945,6.542-2.926,13.627-9.857,13.119Zm0,0" transform="translate(261.333 4756)" fill="#6a6975"/>
  </g>
</svg>
