<svg xmlns="http://www.w3.org/2000/svg" xmlns:xlink="http://www.w3.org/1999/xlink" width="155" height="148" viewBox="0 0 155 148">
  <defs>
    <clipPath id="clip-path">
      <rect id="Rectangle_28" data-name="Rectangle 28" width="155" height="148" rx="15" transform="translate(1007 3342)" fill="#f94d1c"/>
    </clipPath>
  </defs>
  <g id="Group_40" data-name="Group 40" transform="translate(-1481 -3383)">
    <g id="Mask_Group_12" data-name="Mask Group 12" transform="translate(474 41)" clip-path="url(#clip-path)">
      <ellipse id="Ellipse_6" data-name="Ellipse 6" cx="109" cy="105" rx="109" ry="105" transform="translate(1007 3280)" fill="#f94d1c"/>
    </g>
    <g id="social-care" transform="translate(1531.68 3410.681)">
      <g id="Group_16" data-name="Group 16" transform="translate(10.273 63.113)">
        <g id="Group_15" data-name="Group 15">
          <path id="Path_11" data-name="Path 11" d="M81.076,474.2l-2.018-2.843a1.341,1.341,0,1,0-2.186,1.552l2.018,2.843a1.341,1.341,0,1,0,2.186-1.552Z" transform="translate(-76.624 -470.791)" fill="#fff"/>
        </g>
      </g>
      <g id="Group_18" data-name="Group 18" transform="translate(0.001 20.973)">
        <g id="Group_17" data-name="Group 17" transform="translate(0)">
          <path id="Path_12" data-name="Path 12" d="M30.191,202.5,28,192.031a19.743,19.743,0,0,0-8.35-12.394l-4.689-3.153a4.717,4.717,0,0,0-5.98.61V160.94a4.488,4.488,0,0,0-7.3-3.5A4.466,4.466,0,0,0,0,160.94v20.786a12.985,12.985,0,0,0,2.41,7.557L4.8,192.651A1.341,1.341,0,0,0,6.988,191.1L4.6,187.731a10.318,10.318,0,0,1-1.915-6V160.94a1.807,1.807,0,1,1,3.613,0v16.491a9.367,9.367,0,0,0,2.416,6.289c.067.08.135.159.208.236.89.943,1.937,2.055,2.923,3.1l1.38,1.469.014.013,2.07,2.2a1.341,1.341,0,1,0,1.954-1.835c-.024-.026-1.594-1.7-3.386-3.6L10.8,182.035l-.023-.025a2.262,2.262,0,0,1,.044-2.965,2.027,2.027,0,0,1,2.639-.337l4.689,3.153a17.075,17.075,0,0,1,7.222,10.72l2.2,10.468a1.341,1.341,0,1,0,2.624-.551Z" transform="translate(-0.001 -156.451)" fill="#fff"/>
        </g>
      </g>
      <g id="Group_20" data-name="Group 20" transform="translate(7.493 59.197)">
        <g id="Group_19" data-name="Group 19">
          <path id="Path_13" data-name="Path 13" d="M58.325,442.149l-.009-.012a1.341,1.341,0,0,0-2.183,1.557l.009.012a1.341,1.341,0,0,0,2.183-1.557Z" transform="translate(-55.884 -441.575)" fill="#fff"/>
        </g>
      </g>
      <g id="Group_22" data-name="Group 22" transform="translate(38.419 20.974)">
        <g id="Group_21" data-name="Group 21">
          <path id="Path_14" data-name="Path 14" d="M315.12,157.442a4.488,4.488,0,0,0-7.3,3.5V177.1a4.717,4.717,0,0,0-5.98-.61l-4.689,3.153a19.742,19.742,0,0,0-8.349,12.394l-2.2,10.468a1.341,1.341,0,1,0,2.624.55l2.2-10.468a17.075,17.075,0,0,1,7.222-10.72l4.689-3.153a2.027,2.027,0,0,1,2.639.337,2.262,2.262,0,0,1,.047,2.962l-.025.028-6.46,6.873a1.341,1.341,0,1,0,1.954,1.835c.018-.019,5.5-5.844,6.386-6.787.073-.077.141-.156.208-.236a9.367,9.367,0,0,0,2.416-6.289V160.943a1.807,1.807,0,1,1,3.613,0v20.786a10.318,10.318,0,0,1-1.915,6L302.075,202a1.341,1.341,0,1,0,2.186,1.552l10.128-14.267a12.986,12.986,0,0,0,2.41-7.557V160.943A4.467,4.467,0,0,0,315.12,157.442Z" transform="translate(-286.58 -156.454)" fill="#fff"/>
        </g>
      </g>
      <g id="Group_24" data-name="Group 24" transform="translate(12.52 7.239)">
        <g id="Group_23" data-name="Group 23">
          <path id="Path_15" data-name="Path 15" d="M132.169,72.454l-2.385-.57v-.428a6,6,0,0,0,2.567-4.916v-3.1a6,6,0,0,0-9.893-4.56,7.827,7.827,0,0,0-14.507.011,5.995,5.995,0,0,0-9.905,4.549v3.1a6,6,0,0,0,2.567,4.916v.428l-2.385.57a6.28,6.28,0,0,0-4.837,6.128v2.5a1.341,1.341,0,0,0,1.341,1.341h6.16c-.01.163-.016.326-.016.491v4.82a1.341,1.341,0,0,0,1.341,1.341h8.058a1.341,1.341,0,1,0,0-2.681h-1.385v-2.77a1.341,1.341,0,1,0-2.681,0V86.4h-2.651v-3.48a5.551,5.551,0,0,1,4.27-5.415l3.679-.882,2.462,5.6a1.341,1.341,0,0,0,1.227.8h0a1.34,1.34,0,0,0,1.227-.8l2.459-5.593,3.667.876a5.55,5.55,0,0,1,4.274,5.416V86.4h-2.651V83.627a1.341,1.341,0,1,0-2.681,0V86.4H119.97a1.341,1.341,0,0,0,0,2.681h8.192a1.341,1.341,0,0,0,1.341-1.341V82.921c0-.166-.007-.331-.016-.495h6.178a1.341,1.341,0,0,0,1.341-1.341v-2.5A6.28,6.28,0,0,0,132.169,72.454ZM126.35,60.121a3.323,3.323,0,0,1,3.311,3.1H127.8a9.771,9.771,0,0,1-4.495-1.1A3.323,3.323,0,0,1,126.35,60.121Zm-3.319,6.224c0-.065,0-.13,0-.2V64.955a12.453,12.453,0,0,0,4.761.947h1.871v.639a3.319,3.319,0,1,1-6.637,0ZM110.057,61.83h0a5.149,5.149,0,0,1,10.233-.818l-2.257-1.326a1.34,1.34,0,0,0-1.707.295,5.776,5.776,0,0,1-4.438,2.071h-1.832Zm-6.012-1.709a3.324,3.324,0,0,1,3.047,2,9.772,9.772,0,0,1-4.495,1.1h-1.864A3.323,3.323,0,0,1,104.045,60.121ZM100.726,65.9H102.6a12.453,12.453,0,0,0,4.766-.949v1.588a3.319,3.319,0,0,1-6.637,0ZM107.2,74.9a8.222,8.222,0,0,0-5.7,4.85H96.071V78.582a3.608,3.608,0,0,1,2.778-3.52l3.414-.816a1.341,1.341,0,0,0,1.029-1.3v-.451a5.819,5.819,0,0,0,1.5,0v.382c0,.02,0,.04,0,.06a1.343,1.343,0,0,0,1.089,1.319l2,.479Zm3.739-2.081a6.29,6.29,0,0,0-1.073-.362l-2.395-.574v-.418a6.049,6.049,0,0,0,1.162-1.061,7.892,7.892,0,0,0,2.306,2.312Zm5.822,1.97-1.569,3.568-1.572-3.577v-.957a7.857,7.857,0,0,0,3.141.005ZM115.206,71.3a5.155,5.155,0,0,1-5.149-5.149V64.733h1.832a8.447,8.447,0,0,0,5.7-2.2l2.765,1.624v2.188A5.154,5.154,0,0,1,115.206,71.3Zm4.238,1.52v-.091a7.889,7.889,0,0,0,2.326-2.317,6.048,6.048,0,0,0,1.152,1.05v.418l-2.395.574A6.312,6.312,0,0,0,119.445,72.819Zm14.879,6.927h-5.452a8.22,8.22,0,0,0-5.7-4.847l-.673-.161,2.01-.482a1.342,1.342,0,0,0,1.1-1.32c0-.01,0-.021,0-.031v-.411a5.82,5.82,0,0,0,1.5,0v.451a1.341,1.341,0,0,0,1.029,1.3l3.414.816a3.608,3.608,0,0,1,2.778,3.52Z" transform="translate(-93.39 -54)" fill="#fff"/>
        </g>
      </g>
      <g id="Group_26" data-name="Group 26" transform="translate(32.979 39.637)">
        <g id="Group_25" data-name="Group 25">
          <path id="Path_16" data-name="Path 16" d="M248.288,296.061a1.341,1.341,0,1,0,.393.949A1.351,1.351,0,0,0,248.288,296.061Z" transform="translate(-246 -295.67)" fill="#fff"/>
        </g>
      </g>
      <g id="Group_28" data-name="Group 28" transform="translate(32.978)">
        <g id="Group_27" data-name="Group 27">
          <path id="Path_17" data-name="Path 17" d="M247.334,0a1.341,1.341,0,0,0-1.341,1.341V3.346a1.341,1.341,0,0,0,2.681,0V1.341A1.341,1.341,0,0,0,247.334,0Z" transform="translate(-245.993)" fill="#fff"/>
        </g>
      </g>
      <g id="Group_30" data-name="Group 30" transform="translate(25.686 2.576)">
        <g id="Group_29" data-name="Group 29">
          <path id="Path_18" data-name="Path 18" d="M195.294,21.01l-1.406-1.4a1.341,1.341,0,1,0-1.895,1.9l1.406,1.4a1.34,1.34,0,1,0,1.895-1.9Z" transform="translate(-191.599 -19.213)" fill="#fff"/>
        </g>
      </g>
      <g id="Group_32" data-name="Group 32" transform="translate(38.843 2.61)">
        <g id="Group_31" data-name="Group 31">
          <path id="Path_19" data-name="Path 19" d="M293.429,19.862a1.34,1.34,0,0,0-1.9,0l-1.4,1.4a1.341,1.341,0,1,0,1.9,1.895l1.4-1.4A1.341,1.341,0,0,0,293.429,19.862Z" transform="translate(-289.746 -19.469)" fill="#fff"/>
        </g>
      </g>
    </g>
  </g>
</svg>
