<svg xmlns="http://www.w3.org/2000/svg" xmlns:xlink="http://www.w3.org/1999/xlink" width="155" height="148" viewBox="0 0 155 148">
  <defs>
    <clipPath id="clip-path">
      <rect id="Rectangle_25" data-name="Rectangle 25" width="155" height="148" rx="15" transform="translate(1007 3342)" fill="#f94d1c"/>
    </clipPath>
  </defs>
  <g id="Group_43" data-name="Group 43" transform="translate(-533 -3383)">
    <g id="Group_38" data-name="Group 38">
      <g id="Mask_Group_10" data-name="Mask Group 10" transform="translate(-474 41)" clip-path="url(#clip-path)">
        <ellipse id="Ellipse_4" data-name="Ellipse 4" cx="109" cy="105" rx="109" ry="105" transform="translate(1007 3280)" fill="#f94d1c"/>
      </g>
    </g>
    <g id="policy" transform="translate(582.982 3410.681)">
      <path id="Path_2" data-name="Path 2" d="M68.007,0H18.847a7.708,7.708,0,0,0-7.738,7.652L10.793,50.94H1.2A1.248,1.248,0,0,0,0,52.221v5.957A10.438,10.438,0,0,0,9.849,68.566v.072h41.4v-.081c.308.013.494.081.706.081h.029A10.407,10.407,0,0,0,62.328,58.177V20.314h12.5a1.261,1.261,0,0,0,1.2-1.295V8.089A8.075,8.075,0,0,0,68.007,0ZM10.387,66.176h-.008a7.978,7.978,0,0,1-7.917-8V53.4h39.09v4.755a10.42,10.42,0,0,0,3.042,7.394,4.422,4.422,0,0,1,.648.625Zm49.478-8a7.95,7.95,0,0,1-7.885,8h-.025a8,8,0,0,1-7.941-8.018V52.221a1.275,1.275,0,0,0-1.231-1.281H13.255l.317-43.28a5.244,5.244,0,0,1,5.275-5.2H62.195a8.4,8.4,0,0,0-2.329,5.659ZM73.562,8.11v9.742H62.328V8.119a5.7,5.7,0,0,1,5.644-5.657h.034A5.612,5.612,0,0,1,73.562,8.1Zm0,0" fill="#fff"/>
      <path id="Path_3" data-name="Path 3" d="M166.822,75.634l6.348,4.34a1.212,1.212,0,0,0,1.376,0l6.328-4.339A9.562,9.562,0,0,0,184.7,68.34V59.56a1.2,1.2,0,0,0-.656-1.106L174.375,53.7a1.21,1.21,0,0,0-1.076,0l-9.647,4.741A1.2,1.2,0,0,0,163,59.547V68.34A9.563,9.563,0,0,0,166.822,75.634Zm-1.363-15.319,8.387-4.138,8.387,4.15V68.34a7.1,7.1,0,0,1-2.749,5.259l-5.653,3.866L168.2,73.6a7.091,7.091,0,0,1-2.742-5.26Zm0,0" transform="translate(-137.912 -45.329)" fill="#fff"/>
      <path id="Path_4" data-name="Path 4" d="M204.377,123.128a1.23,1.23,0,0,0,.872.369h0a1.233,1.233,0,0,0,.87-.364l4.9-4.9a1.232,1.232,0,1,0-1.741-1.743l-4.023,4.022-1.608-1.624a1.232,1.232,0,1,0-1.75,1.734Zm0,0" transform="translate(-170.525 -98.258)" fill="#fff"/>
      <path id="Path_5" data-name="Path 5" d="M163.779,248H134.231a1.231,1.231,0,0,0,0,2.462h29.548a1.231,1.231,0,1,0,0-2.462Zm0,0" transform="translate(-112.532 -209.834)" fill="#fff"/>
      <path id="Path_6" data-name="Path 6" d="M163.779,285H134.231a1.231,1.231,0,1,0,0,2.462h29.548a1.231,1.231,0,1,0,0-2.462Zm0,0" transform="translate(-112.532 -241.139)" fill="#fff"/>
    </g>
  </g>
</svg>
