<svg xmlns="http://www.w3.org/2000/svg" width="53" height="53" viewBox="0 0 53 53">
  <g id="Group_12" data-name="Group 12" transform="translate(-180 -4744)">
    <circle id="Ellipse_2" data-name="Ellipse 2" cx="26.5" cy="26.5" r="26.5" transform="translate(180 4744)" fill="#eee"/>
    <path id="Path_9" data-name="Path 9" d="M24,13.9v8.772H18.855V14.484c0-2.055-.742-3.459-2.606-3.459a2.813,2.813,0,0,0-2.638,1.861,3.405,3.405,0,0,0-.17,1.239v8.542H8.293s.07-13.86,0-15.295H13.44V9.54c-.01.017-.024.033-.034.05h.034V9.54a5.119,5.119,0,0,1,4.637-2.528C21.463,7.012,24,9.2,24,13.9ZM2.912,0a2.652,2.652,0,1,0-.068,5.285h.032A2.653,2.653,0,1,0,2.912,0ZM.306,22.667H5.449V7.372H.306Zm0,0" transform="translate(194.667 4758.667)" fill="#6a6975"/>
  </g>
</svg>
