<svg xmlns="http://www.w3.org/2000/svg" xmlns:xlink="http://www.w3.org/1999/xlink" width="155" height="148" viewBox="0 0 155 148">
  <defs>
    <clipPath id="clip-path">
      <rect id="Rectangle_27" data-name="Rectangle 27" width="155" height="148" rx="15" transform="translate(1007 3342)" fill="#f94d1c"/>
    </clipPath>
  </defs>
  <g id="Group_39" data-name="Group 39" transform="translate(-1007 -3384)">
    <g id="Mask_Group_11" data-name="Mask Group 11" transform="translate(0 42)" clip-path="url(#clip-path)">
      <ellipse id="Ellipse_5" data-name="Ellipse 5" cx="109" cy="105" rx="109" ry="105" transform="translate(1007 3280)" fill="#f94d1c"/>
    </g>
    <g id="leader" transform="translate(1055.681 3408.681)">
      <path id="Path_7" data-name="Path 7" d="M8.144,38.607A1.144,1.144,0,0,0,7,39.751v3.432H9.288V40.895H34.455v2.288h2.288V40.895H61.91v2.288H64.2V39.751a1.144,1.144,0,0,0-1.144-1.144H36.743V36.319h11.44a1.144,1.144,0,0,0,1.144-1.144V32.887a5.726,5.726,0,0,0-5.72-5.72,3.436,3.436,0,0,1-3.432-3.432V22.64a11.344,11.344,0,0,0,4.576-9.089V10.008A8.017,8.017,0,0,0,36.743,2H34.455a8.017,8.017,0,0,0-8.008,8.008v3.545a11.344,11.344,0,0,0,4.576,9.089v1.094a3.436,3.436,0,0,1-3.432,3.432,5.726,5.726,0,0,0-5.72,5.72v2.288a1.144,1.144,0,0,0,1.144,1.144H25.3V34.031H24.159V32.887a3.436,3.436,0,0,1,3.432-3.432A5.677,5.677,0,0,0,30.9,28.384l3.555,1.778v3.869h-5.72v2.288h5.72v2.288ZM34.455,4.288h2.288a5.726,5.726,0,0,1,5.72,5.72v2.2a4.542,4.542,0,0,1-3.208-3.486L39.008,7.5a1.125,1.125,0,0,0-1.234-.885,1.17,1.17,0,0,0-1.031,1.166,4.6,4.6,0,0,1-4.531,4.582l-3.476.039V10.008A5.726,5.726,0,0,1,34.455,4.288Zm-5.636,10.4,3.418-.038a6.859,6.859,0,0,0,5.688-3.16,6.8,6.8,0,0,0,4.464,3.066,9.067,9.067,0,0,1-5.438,7.359,3.454,3.454,0,0,1-2.7,0,9.069,9.069,0,0,1-5.428-7.228Zm4.527,9.331a5.752,5.752,0,0,0,4.507,0c.021-.009.039-.022.059-.031a5.68,5.68,0,0,0,.9,2.851L35.636,28.2,32.5,26.627a5.653,5.653,0,0,0,.787-2.643c.021.008.039.021.059.03Zm3.4,6.195,3.833-1.643a5.666,5.666,0,0,0,3.03.889,3.436,3.436,0,0,1,3.432,3.432v1.144h-10.3Z" transform="translate(0.72)" fill="#fff"/>
      <path id="Path_8" data-name="Path 8" d="M41.3,48.008A8.017,8.017,0,0,0,33.3,40H24.144A1.144,1.144,0,0,0,23,41.144a8.017,8.017,0,0,0,8.008,8.008H38.9a5.721,5.721,0,0,1-11.245-.19L25.4,49.34a7.967,7.967,0,0,0,3.633,5.446,9.161,9.161,0,0,0-4.887,8.092v1.144a1.144,1.144,0,0,0,1.144,1.144H41.3a1.144,1.144,0,0,0,1.144-1.144V62.879a9.153,9.153,0,0,0-4.9-8.1A8,8,0,0,0,41.3,48.008ZM40.159,62.879H26.432a6.87,6.87,0,0,1,5.72-6.761v5.617H34.44V56.118A6.87,6.87,0,0,1,40.159,62.879ZM25.4,42.288H33.3a5.729,5.729,0,0,1,5.6,4.576H31.008a5.729,5.729,0,0,1-5.6-4.576Z" transform="translate(3.023 5.471)" fill="#fff"/>
      <path id="Path_9" data-name="Path 9" d="M16.547,54.782A8,8,0,0,0,12.3,40H3.144A1.144,1.144,0,0,0,2,41.144a8.017,8.017,0,0,0,8.008,8.008H17.9a5.721,5.721,0,0,1-11.245-.19L4.4,49.34a7.967,7.967,0,0,0,3.633,5.446,9.161,9.161,0,0,0-4.887,8.092v1.144a1.144,1.144,0,0,0,1.144,1.144H20.3a1.144,1.144,0,0,0,1.144-1.144V62.879a9.153,9.153,0,0,0-4.9-8.1ZM4.4,42.288H12.3a5.729,5.729,0,0,1,5.6,4.576H10.008A5.729,5.729,0,0,1,4.4,42.288ZM5.432,62.879a6.87,6.87,0,0,1,5.72-6.761v5.617H13.44V56.118a6.868,6.868,0,0,1,5.72,6.761Z" transform="translate(0 5.471)" fill="#fff"/>
      <path id="Path_10" data-name="Path 10" d="M59.547,54.782A8,8,0,0,0,55.3,40H46.144A1.144,1.144,0,0,0,45,41.144a8.017,8.017,0,0,0,8.008,8.008H60.9a5.721,5.721,0,0,1-11.245-.19L47.4,49.34a7.967,7.967,0,0,0,3.633,5.446,9.161,9.161,0,0,0-4.887,8.092v1.144a1.144,1.144,0,0,0,1.144,1.144H63.3a1.144,1.144,0,0,0,1.144-1.144V62.879a9.153,9.153,0,0,0-4.9-8.1ZM47.4,42.288H55.3a5.729,5.729,0,0,1,5.6,4.576H53.008A5.729,5.729,0,0,1,47.4,42.288Zm1.028,20.591a6.87,6.87,0,0,1,5.72-6.761v5.617H56.44V56.118a6.868,6.868,0,0,1,5.72,6.761Z" transform="translate(6.19 5.471)" fill="#fff"/>
    </g>
  </g>
</svg>
